<!--?xml version="1.0" encoding="utf-8"?-->
<!-- Generator: Adobe Illustrator 18.1.1, SVG Export Plug-In . SVG Version: 6.00 Build 0)  -->

<svg version="1.1" id="_x32_" xmlns="http://www.w3.org/2000/svg" xmlns:xlink="http://www.w3.org/1999/xlink" x="0px" y="0px" viewBox="0 0 512 512" style="width: 256px; height: 256px; opacity: 1;" xml:space="preserve">
<style type="text/css">
	.st0{fill:#4B4B4B;}
</style>
<g>
	<path class="st0" d="M441.762,249.538l-31.28,76.849L299.736,46.237c-2.153-5.44-7.527-8.924-13.382-8.651
		c-5.846,0.264-10.88,4.231-12.524,9.86l-95.304,326.786l-76.886-246.584c-1.795-5.761-7.15-9.671-13.185-9.624
		c-6.026,0.048-11.324,4.023-13.043,9.812L39.307,249.528L0,249.538v38.684h68.189l20.966-70.692l77.095,247.264
		c1.795,5.771,7.168,9.69,13.212,9.633c6.045-0.057,11.343-4.07,13.034-9.879l98.07-336.296l106.826,270.261
		c2.059,5.214,7.074,8.642,12.675,8.67c5.601,0.028,10.653-3.353,12.769-8.538l44.945-110.424H512v-38.684H441.762z"></path>
</g>
</svg>
